<svg width="58" height="58" viewBox="0 0 58 58" fill="none" xmlns="http://www.w3.org/2000/svg">
<g clip-path="url(#clip0_2_1563)">
<path d="M30.5726 10.5107L21.4078 10.5173C20.6708 10.5179 20.0731 11.1155 20.0726 11.8526L20.048 46.121C20.0474 46.8585 20.645 47.4561 21.3825 47.4555L30.5471 47.4489C31.2841 47.4484 31.8819 46.8507 31.8824 46.1137L31.9071 11.8452C31.9076 11.1077 31.31 10.5102 30.5726 10.5107Z" stroke="#FF9900" stroke-width="2" stroke-miterlimit="10" stroke-linecap="round" stroke-linejoin="round"/>
<path d="M31.9048 15.1079L28.054 15.1107" stroke="#FF9900" stroke-width="2" stroke-miterlimit="10" stroke-linecap="round" stroke-linejoin="round"/>
<path d="M31.9014 19.706L28.0506 19.7088" stroke="#FF9900" stroke-width="2" stroke-miterlimit="10" stroke-linecap="round" stroke-linejoin="round"/>
<path d="M31.898 24.3042L28.0472 24.307" stroke="#FF9900" stroke-width="2" stroke-miterlimit="10" stroke-linecap="round" stroke-linejoin="round"/>
<path d="M31.8946 28.9022L28.0438 28.905" stroke="#FF9900" stroke-width="2" stroke-miterlimit="10" stroke-linecap="round" stroke-linejoin="round"/>
<path d="M31.8912 33.5003L28.0404 33.5031" stroke="#FF9900" stroke-width="2" stroke-miterlimit="10" stroke-linecap="round" stroke-linejoin="round"/>
<path d="M31.8882 38.0985L28.0374 38.1013" stroke="#FF9900" stroke-width="2" stroke-miterlimit="10" stroke-linecap="round" stroke-linejoin="round"/>
<path d="M31.8848 42.6965L28.034 42.6993" stroke="#FF9900" stroke-width="2" stroke-miterlimit="10" stroke-linecap="round" stroke-linejoin="round"/>
<path d="M40.3106 13.6837L40.2886 44.3378" stroke="#FF9900" stroke-width="2" stroke-miterlimit="10" stroke-linejoin="round"/>
<path d="M43.3407 41.2856L40.2886 44.3378L37.2407 41.2899" stroke="#FF9900" stroke-width="2" stroke-miterlimit="10" stroke-linecap="round" stroke-linejoin="round"/>
<path d="M37.2589 16.7358L40.311 13.6836L43.3588 16.7314" stroke="#FF9900" stroke-width="2" stroke-miterlimit="10" stroke-linecap="round" stroke-linejoin="round"/>
</g>
<defs>
<clipPath id="clip0_2_1563">
<rect width="40" height="40" fill="white" transform="translate(0.71582 29) rotate(-45)"/>
</clipPath>
</defs>
</svg>
