<svg width="30" height="30" viewBox="0 0 30 30" fill="none" xmlns="http://www.w3.org/2000/svg">
<path d="M14.9998 28.3333C22.3636 28.3333 28.3332 22.3638 28.3332 15C28.3332 7.63619 22.3636 1.66666 14.9998 1.66666C7.63604 1.66666 1.6665 7.63619 1.6665 15C1.6665 22.3638 7.63604 28.3333 14.9998 28.3333Z" fill="url(#paint0_linear_2_1823)"/>
<path fill-rule="evenodd" clip-rule="evenodd" d="M7.70197 14.8593C11.5889 13.1658 14.1808 12.0493 15.4777 11.5099C19.1805 9.96981 19.9499 9.70227 20.4514 9.69344C20.5617 9.6915 20.8083 9.71883 20.968 9.84846C21.1029 9.95791 21.1401 10.1058 21.1578 10.2095C21.1756 10.3133 21.1977 10.5497 21.1801 10.7344C20.9794 12.8427 20.1112 17.9591 19.6695 20.3204C19.4826 21.3196 19.1146 21.6546 18.7583 21.6874C17.984 21.7586 17.396 21.1757 16.6461 20.6841C15.4726 19.9148 14.8096 19.436 13.6705 18.6853C12.3541 17.8178 13.2075 17.3411 13.9577 16.5618C14.1541 16.3579 17.5656 13.2549 17.6316 12.9734C17.6399 12.9381 17.6476 12.8069 17.5696 12.7376C17.4916 12.6683 17.3766 12.692 17.2935 12.7109C17.1758 12.7376 15.3012 13.9767 11.6695 16.4282C11.1373 16.7936 10.6554 16.9716 10.2235 16.9623C9.74745 16.952 8.83168 16.6931 8.15091 16.4718C7.3159 16.2004 6.65226 16.0569 6.71005 15.5959C6.74015 15.3558 7.07079 15.1103 7.70197 14.8593Z" fill="white"/>
<defs>
<linearGradient id="paint0_linear_2_1823" x1="1335" y1="1.66666" x2="1335" y2="2648.56" gradientUnits="userSpaceOnUse">
<stop stop-color="#2AABEE"/>
<stop offset="1" stop-color="#229ED9"/>
</linearGradient>
</defs>
</svg>
