<svg width="30" height="30" viewBox="0 0 30 30" fill="none" xmlns="http://www.w3.org/2000/svg">
<path d="M20.6772 26.1979C19.5002 26.1979 18.2606 25.9167 16.9793 25.375C15.7293 24.8438 14.4689 24.1146 13.2397 23.2292C12.021 22.3333 10.8439 21.3333 9.72933 20.2396C8.62516 19.125 7.62516 17.9479 6.73975 16.7396C5.84391 15.4896 5.12516 14.2396 4.61475 13.0313C4.07308 11.7396 3.80225 10.4896 3.80225 9.31251C3.80225 8.50001 3.94808 7.72918 4.22933 7.01043C4.521 6.27084 4.98975 5.58334 5.62516 4.98959C6.42725 4.19793 7.34391 3.80209 8.32308 3.80209C8.72933 3.80209 9.146 3.89584 9.50016 4.06251C9.90641 4.25001 10.2502 4.53126 10.5002 4.90626L12.9168 8.31251C13.1356 8.61459 13.3022 8.90626 13.4168 9.19793C13.5522 9.51043 13.6252 9.82293 13.6252 10.125C13.6252 10.5208 13.5106 10.9063 13.2918 11.2708C13.1356 11.5521 12.896 11.8542 12.5939 12.1563L11.8856 12.8958C11.896 12.9271 11.9064 12.9479 11.9168 12.9688C12.0418 13.1875 12.2918 13.5625 12.771 14.125C13.2814 14.7083 13.7606 15.2396 14.2397 15.7292C14.8543 16.3333 15.3647 16.8125 15.8439 17.2083C16.4377 17.7083 16.8231 17.9583 17.0522 18.0729L17.0314 18.125L17.7918 17.375C18.1147 17.0521 18.4272 16.8125 18.7293 16.6563C19.3022 16.3021 20.0314 16.2396 20.7606 16.5417C21.0314 16.6563 21.3231 16.8125 21.6356 17.0313L25.0939 19.4896C25.4793 19.75 25.7606 20.0833 25.9272 20.4792C26.0835 20.875 26.1564 21.2396 26.1564 21.6042C26.1564 22.1042 26.0418 22.6042 25.8231 23.0729C25.6043 23.5417 25.3335 23.9479 24.9897 24.3229C24.396 24.9792 23.7502 25.4479 23.0002 25.75C22.2814 26.0417 21.5002 26.1979 20.6772 26.1979ZM8.32308 5.36459C7.75016 5.36459 7.21891 5.61459 6.7085 6.11459C6.22933 6.56251 5.896 7.05209 5.68766 7.58334C5.46891 8.12501 5.36475 8.69793 5.36475 9.31251C5.36475 10.2813 5.59391 11.3333 6.05225 12.4167C6.521 13.5208 7.17725 14.6667 8.01058 15.8125C8.84391 16.9583 9.79183 18.0729 10.8335 19.125C11.8752 20.1563 13.0002 21.1146 14.1564 21.9583C15.2814 22.7813 16.4377 23.4479 17.5835 23.9271C19.3647 24.6875 21.0314 24.8646 22.4064 24.2917C22.9377 24.0729 23.4064 23.7396 23.8335 23.2604C24.0731 23 24.2606 22.7188 24.4168 22.3854C24.5418 22.125 24.6043 21.8542 24.6043 21.5833C24.6043 21.4167 24.5731 21.25 24.4897 21.0625C24.4585 21 24.396 20.8854 24.1981 20.75L20.7397 18.2917C20.5314 18.1458 20.3439 18.0417 20.1668 17.9688C19.9377 17.875 19.8439 17.7813 19.4897 18C19.2814 18.1042 19.0939 18.2604 18.8856 18.4688L18.0939 19.25C17.6877 19.6458 17.0627 19.7396 16.5835 19.5625L16.3022 19.4375C15.8752 19.2083 15.3752 18.8542 14.8231 18.3854C14.3231 17.9583 13.7814 17.4583 13.1252 16.8125C12.6147 16.2917 12.1043 15.7396 11.5731 15.125C11.0835 14.5521 10.7293 14.0625 10.5106 13.6563L10.3856 13.3438C10.3231 13.1042 10.3022 12.9688 10.3022 12.8229C10.3022 12.4479 10.4377 12.1146 10.6981 11.8542L11.4793 11.0417C11.6877 10.8333 11.8439 10.6354 11.9481 10.4583C12.0314 10.3229 12.0627 10.2083 12.0627 10.1042C12.0627 10.0208 12.0314 9.89584 11.9793 9.77084C11.9064 9.60418 11.7918 9.41668 11.646 9.21876L9.22933 5.80209C9.12516 5.65626 9.00016 5.55209 8.84391 5.47918C8.67725 5.40626 8.50016 5.36459 8.32308 5.36459ZM17.0314 18.1354L16.8647 18.8438L17.146 18.1146C17.0939 18.1042 17.0522 18.1146 17.0314 18.1354Z" fill="#0C7A55"/>
<path d="M21.7708 12.6563C21.3437 12.6563 20.9896 12.3021 20.9896 11.875C20.9896 11.5 20.6146 10.7188 19.9896 10.0521C19.375 9.39587 18.6979 9.01045 18.125 9.01045C17.6979 9.01045 17.3438 8.65629 17.3438 8.2292C17.3438 7.80212 17.6979 7.44795 18.125 7.44795C19.1354 7.44795 20.1979 7.98962 21.125 8.9792C21.9896 9.90629 22.5521 11.0417 22.5521 11.875C22.5521 12.3021 22.1979 12.6563 21.7708 12.6563Z" fill="#0C7A55"/>
<path d="M25.4167 12.6563C24.9896 12.6563 24.6354 12.3021 24.6354 11.875C24.6354 8.28129 21.7188 5.36462 18.125 5.36462C17.6979 5.36462 17.3438 5.01046 17.3438 4.58337C17.3438 4.15629 17.6979 3.80212 18.125 3.80212C22.5729 3.80212 26.1979 7.42712 26.1979 11.875C26.1979 12.3021 25.8438 12.6563 25.4167 12.6563Z" fill="#0C7A55"/>
</svg>
