<svg width="30" height="30" viewBox="0 0 30 30" fill="none" xmlns="http://www.w3.org/2000/svg">
<mask id="mask0_2_1465" style="mask-type:alpha" maskUnits="userSpaceOnUse" x="1" y="1" width="28" height="28">
<path d="M9.41773 1.69911C7.99904 1.76607 7.03007 1.99331 6.18334 2.32509C5.30681 2.6668 4.56378 3.12474 3.82463 3.86692C3.08461 4.60954 2.63014 5.35388 2.29103 6.23129C1.96271 7.08018 1.74022 8.04961 1.67757 9.46918C1.61537 10.8914 1.60111 11.345 1.60804 14.9656C1.61495 18.5858 1.63093 19.0403 1.69875 20.4629C1.76656 21.8812 1.99295 22.8497 2.32473 23.6969C2.66687 24.5734 3.12435 25.316 3.86695 26.0556C4.60913 26.7952 5.35391 27.2493 6.23172 27.5888C7.07975 27.9167 8.04958 28.1401 9.46872 28.2023C10.8909 28.2649 11.3449 28.2787 14.9646 28.2718C18.5861 28.2649 19.0401 28.2489 20.4623 28.1815C21.881 28.1137 22.8491 27.8865 23.6967 27.5556C24.5732 27.2126 25.3162 26.7559 26.0554 26.0133C26.7945 25.2711 27.249 24.5263 27.5881 23.6485C27.9165 22.8005 28.1398 21.8306 28.2016 20.4123C28.2638 18.9893 28.2785 18.5348 28.2715 14.9146C28.2646 11.294 28.2482 10.8404 28.1808 9.41864C28.1134 7.99907 27.8862 7.03094 27.5549 6.18334C27.2123 5.30681 26.7552 4.56461 26.0131 3.82459C25.2709 3.08543 24.5261 2.63009 23.6483 2.29183C22.7998 1.9635 21.8304 1.73972 20.4113 1.67837C18.9891 1.6153 18.5351 1.60149 14.9141 1.6084C11.2939 1.6153 10.8399 1.63086 9.41773 1.69911ZM9.57327 25.8025C8.27336 25.7459 7.56749 25.5299 7.09704 25.3489C6.47409 25.1078 6.02956 24.8188 5.5617 24.3544C5.09471 23.8883 4.80483 23.445 4.56162 22.8234C4.37887 22.3529 4.15899 21.6479 4.09808 20.348C4.03198 18.9426 4.01687 18.521 4.01039 14.9608C4.00348 11.4015 4.01642 10.9799 4.07778 9.5733C4.13349 8.27425 4.35081 7.56749 4.53137 7.09746C4.77242 6.47364 5.06056 6.02997 5.52584 5.56212C5.99196 5.09425 6.43519 4.80523 7.05728 4.56202C7.5273 4.37841 8.23233 4.16025 9.53179 4.09848C10.938 4.03194 11.3591 4.01769 14.9184 4.01078C18.4785 4.00386 18.9001 4.0164 20.3068 4.07818C21.6058 4.13476 22.3125 4.34991 22.7821 4.53178C23.4055 4.77283 23.85 5.06012 24.3174 5.52626C24.7849 5.9924 25.0747 6.43477 25.318 7.05815C25.5015 7.52687 25.7197 8.23277 25.7811 9.53182C25.848 10.938 25.8631 11.3596 25.8696 14.9189C25.8765 18.4791 25.8636 18.9007 25.8018 20.3065C25.7452 21.6064 25.5296 22.3127 25.3482 22.7836C25.1071 23.4061 24.819 23.8507 24.3533 24.3185C23.8876 24.7847 23.4444 25.0754 22.8218 25.3186C22.3527 25.5018 21.6468 25.7204 20.3482 25.7822C18.9421 25.8483 18.5209 25.8634 14.9603 25.8699C11.401 25.8768 10.9799 25.8634 9.57327 25.8025ZM20.4428 7.81287C20.4446 8.6959 21.1625 9.41087 22.0455 9.40914C22.929 9.40741 23.644 8.68985 23.6427 7.80682C23.6409 6.9238 22.9229 6.20841 22.0395 6.21013C21.1561 6.21186 20.4411 6.92985 20.4428 7.81287ZM8.09367 14.9531C8.101 18.7344 11.1721 21.793 14.9525 21.7857C18.7334 21.7783 21.7937 18.7081 21.7864 14.9267C21.779 11.1467 18.7075 8.08633 14.9262 8.09367C11.1457 8.10102 8.08631 11.1726 8.09367 14.9531ZM10.4951 14.9483C10.4908 12.4941 12.4772 10.5004 14.9309 10.4961C17.3851 10.4913 19.3792 12.4768 19.384 14.9315C19.3888 17.3861 17.4024 19.3794 14.9478 19.3842C12.494 19.3889 10.4999 17.403 10.4951 14.9483Z" fill="#000008"/>
</mask>
<g mask="url(#mask0_2_1465)">
<rect x="0.489258" y="0.49054" width="29.0333" height="29.0333" fill="url(#paint0_radial_2_1465)"/>
<g filter="url(#filter0_f_2_1465)">
<ellipse cx="5.92285" cy="-0.61413" rx="16.75" ry="11.725" transform="rotate(-14.9317 5.92285 -0.61413)" fill="#7334FF"/>
</g>
<g filter="url(#filter1_f_2_1465)">
<circle cx="28.5924" cy="0.67653" r="15.8194" fill="#B202F5"/>
</g>
<g filter="url(#filter2_f_2_1465)">
<circle cx="6.07298" cy="26.5463" r="8.93333" fill="#FFB401"/>
</g>
</g>
<defs>
<filter id="filter0_f_2_1465" x="-22.8273" y="-25.0241" width="57.5003" height="48.8199" filterUnits="userSpaceOnUse" color-interpolation-filters="sRGB">
<feFlood flood-opacity="0" result="BackgroundImageFix"/>
<feBlend mode="normal" in="SourceGraphic" in2="BackgroundImageFix" result="shape"/>
<feGaussianBlur stdDeviation="6.14167" result="effect1_foregroundBlur_2_1465"/>
</filter>
<filter id="filter1_f_2_1465" x="-2.11594" y="-30.0318" width="61.4165" height="61.4167" filterUnits="userSpaceOnUse" color-interpolation-filters="sRGB">
<feFlood flood-opacity="0" result="BackgroundImageFix"/>
<feBlend mode="normal" in="SourceGraphic" in2="BackgroundImageFix" result="shape"/>
<feGaussianBlur stdDeviation="7.44444" result="effect1_foregroundBlur_2_1465"/>
</filter>
<filter id="filter2_f_2_1465" x="-14.7715" y="5.70183" width="41.6889" height="41.6889" filterUnits="userSpaceOnUse" color-interpolation-filters="sRGB">
<feFlood flood-opacity="0" result="BackgroundImageFix"/>
<feBlend mode="normal" in="SourceGraphic" in2="BackgroundImageFix" result="shape"/>
<feGaussianBlur stdDeviation="5.95556" result="effect1_foregroundBlur_2_1465"/>
</filter>
<radialGradient id="paint0_radial_2_1465" cx="0" cy="0" r="1" gradientUnits="userSpaceOnUse" gradientTransform="translate(12.0281 28.2211) rotate(-61.8868) scale(15.4034)">
<stop stop-color="#FFD502"/>
<stop offset="0.869374" stop-color="#FF1154"/>
</radialGradient>
</defs>
</svg>
