<svg width="58" height="58" viewBox="0 0 58 58" fill="none" xmlns="http://www.w3.org/2000/svg">
<g clip-path="url(#clip0_2_1532)">
<path d="M10.5106 27.4276L10.5172 36.5923C10.5177 37.3293 11.1154 37.927 11.8525 37.9276L46.1209 37.9522C46.8584 37.9527 47.4559 37.3551 47.4554 36.6177L47.4488 27.453C47.4483 26.716 46.8505 26.1182 46.1136 26.1178L11.8451 26.0931C11.1076 26.0926 10.5101 26.6901 10.5106 27.4276Z" stroke="#FF9900" stroke-width="2" stroke-miterlimit="10" stroke-linecap="round" stroke-linejoin="round"/>
<path d="M15.1079 26.0955L15.1107 29.9463" stroke="#FF9900" stroke-width="2" stroke-miterlimit="10" stroke-linecap="round" stroke-linejoin="round"/>
<path d="M19.7065 26.0987L19.7093 29.9495" stroke="#FF9900" stroke-width="2" stroke-miterlimit="10" stroke-linecap="round" stroke-linejoin="round"/>
<path d="M24.3042 26.1021L24.307 29.9529" stroke="#FF9900" stroke-width="2" stroke-miterlimit="10" stroke-linecap="round" stroke-linejoin="round"/>
<path d="M28.9023 26.1055L28.9051 29.9563" stroke="#FF9900" stroke-width="2" stroke-miterlimit="10" stroke-linecap="round" stroke-linejoin="round"/>
<path d="M33.5009 26.1088L33.5037 29.9596" stroke="#FF9900" stroke-width="2" stroke-miterlimit="10" stroke-linecap="round" stroke-linejoin="round"/>
<path d="M38.0981 26.112L38.1009 29.9628" stroke="#FF9900" stroke-width="2" stroke-miterlimit="10" stroke-linecap="round" stroke-linejoin="round"/>
<path d="M42.6962 26.1153L42.6991 29.9661" stroke="#FF9900" stroke-width="2" stroke-miterlimit="10" stroke-linecap="round" stroke-linejoin="round"/>
<path d="M13.6838 17.6893L44.3379 17.7113" stroke="#FF9900" stroke-width="2" stroke-miterlimit="10" stroke-linejoin="round"/>
<path d="M41.2857 14.6592L44.3379 17.7113L41.29 20.7591" stroke="#FF9900" stroke-width="2" stroke-miterlimit="10" stroke-linecap="round" stroke-linejoin="round"/>
<path d="M16.7359 20.7415L13.6838 17.6894L16.7315 14.6416" stroke="#FF9900" stroke-width="2" stroke-miterlimit="10" stroke-linecap="round" stroke-linejoin="round"/>
</g>
<defs>
<clipPath id="clip0_2_1532">
<rect width="40" height="40" fill="white" transform="translate(29 57.2843) rotate(-135)"/>
</clipPath>
</defs>
</svg>
