<svg width="30" height="30" viewBox="0 0 30 30" fill="none" xmlns="http://www.w3.org/2000/svg">
<path d="M15.5659 10.3199C15.5756 10.1339 15.7343 9.99091 15.9204 10.0006C16.6165 10.0369 17.1956 10.2476 17.6081 10.6741C18.019 11.099 18.2204 11.6925 18.2558 12.4053C18.265 12.5913 18.1217 12.7497 17.9356 12.7589C17.7495 12.7681 17.5912 12.6248 17.5819 12.4387C17.5517 11.8285 17.3843 11.4131 17.1231 11.1432C16.8636 10.8748 16.4675 10.7048 15.8852 10.6744C15.6992 10.6647 15.5562 10.506 15.5659 10.3199Z" fill="#7360F2"/>
<path d="M15.5617 8.19085C15.3805 8.14737 15.1984 8.25899 15.1549 8.44015C15.1114 8.62132 15.223 8.80343 15.4042 8.84691C15.539 8.87925 15.6756 8.90964 15.8133 8.94027C16.5068 9.09452 17.2263 9.25455 17.8589 9.69795C18.5853 10.2071 19.2285 11.1244 19.4067 12.9956C19.4243 13.1811 19.589 13.3171 19.7745 13.2994C19.96 13.2818 20.096 13.1171 20.0783 12.9316C19.8861 10.9137 19.1712 9.79386 18.2462 9.14547C17.4929 8.61746 16.6198 8.42565 15.927 8.27343C15.7983 8.24517 15.6759 8.21828 15.5617 8.19085Z" fill="#7360F2"/>
<path d="M14.4593 6.77481C14.4606 6.5885 14.6127 6.43853 14.799 6.43982C16.7567 6.45346 18.4115 7.1052 19.7402 8.40038C21.0799 9.7064 21.7424 11.4844 21.7592 13.6927C21.7607 13.879 21.6108 14.0312 21.4245 14.0326C21.2382 14.034 21.086 13.8841 21.0846 13.6978C21.0688 11.6286 20.4532 10.0377 19.2692 8.88349C18.0741 7.71845 16.5902 7.127 14.7943 7.11449C14.608 7.11319 14.458 6.96111 14.4593 6.77481Z" fill="#7360F2"/>
<path d="M16.6994 16.6659C16.444 16.9805 15.9698 16.9405 15.9698 16.9405C12.504 16.0557 11.5764 12.545 11.5764 12.545C11.5764 12.545 11.5348 12.0708 11.8509 11.8155L12.4772 11.3177C12.7877 11.0784 12.9858 10.4978 12.6696 9.93073C12.4272 9.5051 12.1635 9.09187 11.8797 8.69261C11.604 8.31606 10.9617 7.54493 10.9593 7.54253C10.6496 7.17718 10.1942 7.09234 9.71398 7.34245C9.71252 7.34245 9.71053 7.3431 9.70861 7.34372C9.70683 7.3443 9.70513 7.34485 9.70397 7.34485C9.22636 7.62003 8.7957 7.96964 8.42823 8.38048C8.42697 8.38299 8.42572 8.38419 8.42447 8.38538C8.42332 8.38648 8.42217 8.38758 8.42102 8.38969C8.12436 8.7477 7.95456 9.09865 7.91161 9.44253C7.90269 9.49323 7.8996 9.54479 7.9024 9.59619C7.90081 9.74804 7.92392 9.89915 7.97083 10.0436L7.98724 10.0548C8.1369 10.5862 8.51146 11.4714 9.32541 12.9472C9.79097 13.8008 10.3279 14.6135 10.9305 15.3766C11.2324 15.7591 11.556 16.124 11.8997 16.4695C11.9039 16.4736 11.908 16.4778 11.912 16.4819C11.9202 16.4901 11.9283 16.4983 11.9365 16.5063L12.047 16.6167C12.3924 16.9604 12.7573 17.284 13.1398 17.5859C13.903 18.1886 14.7159 18.7255 15.5697 19.191C17.0451 20.0049 17.9311 20.3795 18.4617 20.5292L18.4729 20.5456C18.6173 20.5926 18.7684 20.6159 18.9203 20.6144C18.9717 20.6169 19.0233 20.6137 19.074 20.6048C19.4184 20.564 19.7691 20.3944 20.126 20.0962C20.1281 20.095 20.1292 20.0939 20.1303 20.0927C20.1315 20.0915 20.1327 20.0902 20.1352 20.089C20.5461 19.7214 20.8958 19.2908 21.1713 18.8132C21.1713 18.8121 21.1717 18.8104 21.1722 18.8086C21.1727 18.8067 21.1733 18.8047 21.1733 18.8032C21.4234 18.323 21.3385 17.8676 20.9712 17.5575C20.9707 17.5575 20.9408 17.5328 20.89 17.4911C20.6818 17.3195 20.1239 16.8598 19.8211 16.6371C19.4222 16.3534 19.0094 16.0897 18.5842 15.8472C18.0167 15.5311 17.4373 15.7292 17.1972 16.0397L16.6994 16.6659Z" fill="#7360F2"/>
<path fill-rule="evenodd" clip-rule="evenodd" d="M24.7691 4.26768C24.1064 3.65622 21.4285 1.71221 15.4635 1.6858C15.4635 1.6858 8.42935 1.26162 5.00028 4.40693C3.09147 6.31613 2.41998 9.1097 2.34915 12.5731C2.27832 16.0366 2.18668 22.5273 8.44335 24.2872H8.44936L8.44535 26.9728C8.44535 26.9728 8.40534 28.06 9.12124 28.2817C9.84394 28.5061 10.3175 27.9677 10.9349 27.2657L10.9352 27.2653C11.0576 27.1262 11.1855 26.9808 11.3222 26.8335C11.776 26.3445 12.4026 25.6262 12.8748 25.0772C17.1539 25.4373 20.4449 24.6142 20.8186 24.4925C20.8958 24.4675 21.005 24.4397 21.1405 24.4053C22.523 24.0538 26.6425 23.0063 27.3666 17.0958C28.1874 10.4062 26.9697 6.17487 24.7691 4.26768ZM25.4942 16.616C24.89 21.4954 21.615 22.2574 20.435 22.532C20.3044 22.5624 20.1996 22.5868 20.1267 22.6101C19.8158 22.7102 16.9254 23.4293 13.2906 23.192C13.2906 23.192 10.5823 26.4593 9.7363 27.3089C9.60425 27.4418 9.44898 27.4954 9.34534 27.469C9.19968 27.4334 9.15966 27.2609 9.16126 27.0088C9.16366 26.6486 9.18447 22.5461 9.18447 22.5461C4.06671 21.1253 4.18607 15.9131 4.25381 12.9547C4.25613 12.8537 4.25838 12.7551 4.26037 12.6596C4.32039 9.76677 4.86382 7.39698 6.47811 5.80312C9.37855 3.17602 15.3535 3.56858 15.3535 3.56858C20.3993 3.59059 22.8171 5.11003 23.3777 5.61904C25.2393 7.21291 26.1877 11.0269 25.4942 16.6144V16.616Z" fill="#7360F2"/>
</svg>
