<svg width="58" height="57" viewBox="0 0 58 57" fill="none" xmlns="http://www.w3.org/2000/svg">
<g clip-path="url(#clip0_2_1583)">
<path d="M10.5106 27.1433L10.5172 36.308C10.5177 37.045 11.1154 37.6427 11.8525 37.6433L46.1209 37.6679C46.8584 37.6684 47.4559 37.0708 47.4554 36.3334L47.4488 27.1687C47.4483 26.4317 46.8505 25.8339 46.1136 25.8335L11.8451 25.8088C11.1076 25.8083 10.5101 26.4058 10.5106 27.1433Z" stroke="#FF9900" stroke-width="2" stroke-miterlimit="10" stroke-linecap="round" stroke-linejoin="round"/>
<path d="M15.1079 25.8112L15.1107 29.662" stroke="#FF9900" stroke-width="2" stroke-miterlimit="10" stroke-linecap="round" stroke-linejoin="round"/>
<path d="M19.706 25.8145L19.7088 29.6653" stroke="#FF9900" stroke-width="2" stroke-miterlimit="10" stroke-linecap="round" stroke-linejoin="round"/>
<path d="M24.3037 25.8177L24.3065 29.6685" stroke="#FF9900" stroke-width="2" stroke-miterlimit="10" stroke-linecap="round" stroke-linejoin="round"/>
<path d="M28.9018 25.8211L28.9046 29.6719" stroke="#FF9900" stroke-width="2" stroke-miterlimit="10" stroke-linecap="round" stroke-linejoin="round"/>
<path d="M33.5 25.8244L33.5028 29.6752" stroke="#FF9900" stroke-width="2" stroke-miterlimit="10" stroke-linecap="round" stroke-linejoin="round"/>
<path d="M38.0981 25.8277L38.1009 29.6785" stroke="#FF9900" stroke-width="2" stroke-miterlimit="10" stroke-linecap="round" stroke-linejoin="round"/>
<path d="M42.6962 25.831L42.6991 29.6818" stroke="#FF9900" stroke-width="2" stroke-miterlimit="10" stroke-linecap="round" stroke-linejoin="round"/>
<path d="M28.0067 12.5655C28.0071 12.0132 28.4551 11.5658 29.0074 11.5662C29.5597 11.5666 30.0071 12.0146 30.0067 12.5669L28.0067 12.5655ZM30.0067 12.5669L29.9995 22.5449L27.9995 22.5435L28.0067 12.5655L30.0067 12.5669Z" fill="#FF9900"/>
<path d="M32.0517 19.492L28.9995 22.5442L25.9517 19.4963" stroke="#FF9900" stroke-width="2" stroke-miterlimit="10" stroke-linecap="round" stroke-linejoin="round"/>
<path d="M28.007 50.5806C28.0074 51.1329 28.4555 51.5803 29.0077 51.5799C29.56 51.5795 30.0074 51.1315 30.007 50.5792L28.007 50.5806ZM30.007 50.5792L30 40.7785L28 40.7799L28.007 50.5806L30.007 50.5792Z" fill="#FF9900"/>
<path d="M32.0526 43.8314L29.0005 40.7793L25.9526 43.8271" stroke="#FF9900" stroke-width="2" stroke-miterlimit="10" stroke-linecap="round" stroke-linejoin="round"/>
</g>
<defs>
<clipPath id="clip0_2_1583">
<rect width="40" height="40" fill="white" transform="translate(29 57) rotate(-135)"/>
</clipPath>
</defs>
</svg>
